<mxfile host="app.diagrams.net" modified="2024-01-23T08:50:07.231Z" agent="Mozilla/5.0 (Windows NT 10.0; Win64; x64) AppleWebKit/537.36 (KHTML, like Gecko) Chrome/120.0.0.0 Safari/537.36" version="22.1.21" etag="Jf4NB5g28klYQQP1n6BG" type="github">
  <diagram name="第 1 页" id="vC36bTI7rv4mlPH6gE2I">
    <mxGraphModel>
      <root>
        <mxCell id="0" />
        <mxCell id="1" parent="0" />
      </root>
    </mxGraphModel>
  </diagram>
</mxfile>
